<svg version="1.1" id="Layer_1" xmlns="http://www.w3.org/2000/svg" xmlns:xlink="http://www.w3.org/1999/xlink" x="0px" y="0px"
	 width="200%" viewBox="0 0 1024 1024" enable-background="new 0 0 1024 1024" xml:space="preserve">
<path fill="#8B0000" opacity="1.000000" stroke="none" 
	d="
M382.569580,367.434967 
	C399.217041,386.092804 419.044617,400.018738 440.567505,411.686829 
	C455.515259,419.790375 470.556732,427.668549 482.777802,439.900787 
	C507.701965,464.847748 515.368530,502.358917 501.994904,535.012146 
	C501.513916,536.186401 501.359802,537.662048 499.777222,538.156006 
	C498.621735,537.943481 498.760864,536.979553 498.881287,536.241882 
	C504.022522,504.745697 492.360443,480.618347 466.739929,462.507507 
	C455.952454,454.882019 444.396423,448.632294 432.586060,442.801575 
	C415.824341,434.526398 399.555939,425.504730 385.111420,413.428345 
	C366.641449,397.986511 356.827118,378.003571 353.720062,354.509735 
	C352.305206,343.811676 350.827881,333.048706 352.663971,322.208984 
	C352.881104,320.927094 352.695374,319.541718 354.727142,317.858368 
	C361.323853,336.047668 369.856964,352.761993 382.569580,367.434967 
z"/>
<path fill="#8B0000" opacity="1.000000" stroke="none" 
	d="
M539.664795,452.733551 
	C550.249146,437.623016 564.293030,427.096802 579.935486,418.541229 
	C596.738220,409.351044 613.636841,400.382263 628.850403,388.562469 
	C650.748474,371.549408 666.375610,350.064484 675.926514,324.085693 
	C676.556580,322.371948 677.306641,320.700684 678.056396,319.034576 
	C678.157837,318.809082 678.585144,318.730164 678.896973,318.564575 
	C680.699402,319.313721 680.375244,321.035736 680.475464,322.413239 
	C682.603516,351.672882 678.287415,379.354828 658.792297,402.612274 
	C646.158997,417.683624 629.334778,427.403076 612.060059,436.241760 
	C595.615662,444.655640 578.643738,452.173248 563.990417,463.667786 
	C548.794067,475.588135 537.012451,489.914581 533.835266,509.716858 
	C532.457092,518.307007 532.990417,526.976135 533.633667,535.613403 
	C533.702820,536.541504 534.430298,537.488708 533.395508,538.303101 
	C521.880737,522.588196 519.322876,481.335266 539.664795,452.733551 
z"/>
<path fill="#8B0000" opacity="1.000000" stroke="none" 
	d="
M371.272430,633.526733 
	C362.007019,604.694519 369.162445,571.554260 376.044556,556.822388 
	C377.291687,556.810059 377.687012,557.869446 378.155273,558.672424 
	C384.256500,569.135315 392.130035,578.131836 400.996674,586.297241 
	C402.865204,588.018005 404.044006,589.732300 402.891541,592.383972 
	C395.770508,608.768311 397.594177,625.372681 402.654266,641.671448 
	C415.691162,683.663879 436.481842,721.278625 467.654724,752.656494 
	C480.259796,765.344543 494.270020,776.343994 510.264618,784.607483 
	C511.129272,785.054199 511.893890,785.694519 513.018127,786.457092 
	C511.082825,788.174316 509.458099,787.089539 507.886169,786.562927 
	C481.621643,777.764709 459.370239,762.548218 439.535095,743.561890 
	C407.452820,712.852356 385.466553,675.836304 371.272430,633.526733 
z"/>
<path fill="#8B0000" opacity="1.000000" stroke="none" 
	d="
M657.691772,644.566040 
	C643.211365,681.902466 622.793945,715.007080 594.024231,742.490540 
	C574.732056,760.920166 552.922913,775.801819 527.746765,785.271545 
	C524.932251,786.330200 522.130188,787.795349 517.326782,787.262878 
	C520.783752,785.237427 522.977722,783.937195 525.185425,782.660706 
	C563.955261,760.244202 591.317749,727.407776 611.377625,687.990540 
	C620.677795,669.715820 628.835327,650.965942 633.009766,630.731262 
	C635.612915,618.113464 635.877319,605.648560 630.662048,593.532288 
	C629.673645,591.236023 629.348083,589.285889 631.573730,587.276978 
	C640.893799,578.864441 649.062561,569.466003 655.386780,558.549744 
	C655.694580,558.018494 656.316772,557.669250 656.792969,557.234924 
	C667.896179,569.435181 668.394043,615.465576 657.691772,644.566040 
z"/>
<path fill="#8B0000" opacity="1.000000" stroke="none" 
	d="
M551.341370,516.837097 
	C538.713135,509.189270 538.567932,508.722870 545.137329,496.305878 
	C552.494507,482.399902 563.573792,472.017334 576.426941,463.315979 
	C589.146057,454.705475 603.039795,448.177338 616.443604,440.785706 
	C626.367188,435.313293 636.246277,429.817352 645.085999,422.649902 
	C645.970276,421.932861 646.884949,421.143402 648.521667,421.460571 
	C648.890808,423.330872 647.377502,424.342224 646.406677,425.498657 
	C637.818176,435.729980 628.411743,445.152252 617.745605,453.204163 
	C614.347107,455.769684 613.457336,457.912628 614.941956,462.252930 
	C624.904663,491.378418 605.571472,520.115967 574.797852,522.141418 
	C566.683838,522.675415 558.961548,520.609192 551.341370,516.837097 
M583.374451,486.626312 
	C577.096191,495.086121 568.707153,498.032257 558.982117,494.913788 
	C556.605408,494.151642 555.691833,494.881378 554.978271,496.841980 
	C564.456116,502.752106 578.139221,499.880951 585.043396,490.732147 
	C590.381409,483.658722 591.592224,476.087128 587.440125,472.214203 
	C585.624390,476.826202 586.922729,482.097473 583.374451,486.626312 
z"/>
<path fill="#8B0000" opacity="1.000000" stroke="none" 
	d="
M449.543335,459.389038 
	C466.926086,470.208282 481.995178,482.692139 490.705505,501.567078 
	C492.790527,506.085144 492.077606,508.482208 488.348328,511.548065 
	C461.187805,533.876953 420.796600,519.128296 414.979248,484.458191 
	C413.643524,476.497498 414.452118,468.419037 417.811768,460.957794 
	C419.377319,457.480957 418.485260,455.585876 415.744843,453.439362 
	C405.360291,445.305420 395.670441,436.413055 387.300354,426.168335 
	C386.208679,424.832123 384.496033,423.750305 384.985992,420.502197 
	C404.806702,436.768097 427.896545,446.482666 449.543335,459.389038 
M444.934631,476.297516 
	C444.330322,474.660065 445.788025,472.073486 442.791809,471.483582 
	C439.133209,478.063538 443.365143,489.439972 451.396942,495.080414 
	C458.328247,499.948059 470.096771,502.059021 477.144623,493.766449 
	C469.646027,494.215820 462.955261,497.105591 456.467133,493.646729 
	C449.703949,490.041199 446.263275,484.411743 444.934631,476.297516 
z"/>
<path fill="#8B0000" opacity="1.000000" stroke="none" 
	d="
M384.019226,507.128906 
	C388.549500,531.215942 400.235046,551.151794 416.431549,568.466492 
	C439.192566,592.798828 467.407227,608.261536 499.153687,617.633484 
	C501.988922,618.470398 504.815796,619.335632 508.395691,620.413269 
	C504.781036,623.054932 501.588440,621.522522 498.910065,621.051208 
	C452.485748,612.880981 414.839233,590.523560 388.083649,551.206543 
	C374.445557,531.165466 367.485687,508.729340 367.181183,484.527588 
	C366.963562,467.232697 370.336731,450.458710 377.656708,434.635712 
	C378.334015,433.171631 378.731445,431.431549 380.889771,430.632263 
	C384.183380,434.130676 387.693237,437.625122 390.907532,441.373077 
	C392.476715,443.202850 390.890015,445.144379 390.193939,446.971161 
	C382.817535,466.329346 380.098358,486.180023 384.019226,507.128906 
z"/>
<path fill="#8B0000" opacity="1.000000" stroke="none" 
	d="
M605.543701,578.541748 
	C626.423096,559.453674 641.629822,537.291504 648.043945,509.675568 
	C652.900146,488.767242 650.908875,468.375977 643.417297,448.466736 
	C641.802917,444.176453 641.832947,441.096069 645.612122,438.053711 
	C648.129395,436.027252 650.039673,433.246765 652.220459,430.805054 
	C655.425171,432.862549 656.104858,435.928406 657.139221,438.648621 
	C672.674316,479.501892 666.753296,517.867004 642.475830,553.429138 
	C616.900940,590.891907 580.420105,611.746643 536.402771,620.288940 
	C532.516663,621.043152 528.610718,621.905640 524.361084,620.614075 
	C553.949036,611.626648 581.862915,599.493408 605.543701,578.541748 
z"/>
<path fill="#8B0000" opacity="1.000000" stroke="none" 
	d="
M474.088867,397.225952 
	C465.895233,399.133179 458.138062,401.151581 450.826508,404.386841 
	C446.466187,406.316315 442.707184,406.598907 438.714203,403.696381 
	C436.056793,401.764709 432.662903,400.961792 429.301514,397.806488 
	C447.311188,387.485779 466.395020,382.044647 486.166046,378.819305 
	C532.192627,371.310760 579.196716,383.758423 602.442993,398.338959 
	C597.076538,404.405762 588.050110,406.927673 580.972351,404.345551 
	C558.550049,396.165436 535.401062,391.972748 511.539062,392.428345 
	C499.066193,392.666473 486.659058,394.113007 474.088867,397.225952 
z"/>
<path fill="#8B0000" opacity="1.000000" stroke="none" 
	d="
M517.806946,610.151367 
	C517.382935,611.439392 517.060852,612.346924 516.738770,613.254456 
	C511.947205,595.068115 509.703552,576.213867 499.716736,559.730713 
	C496.914337,561.074402 497.148193,563.832703 495.066925,565.431946 
	C493.815094,562.335876 495.214996,559.719727 495.783081,557.183533 
	C498.297333,545.958130 505.147095,537.490662 513.509338,530.040649 
	C515.137024,528.590515 516.776245,528.507324 518.427673,529.924744 
	C528.700745,538.742493 536.296448,549.165039 538.146362,563.000854 
	C538.181641,563.264587 537.869995,563.574707 537.700378,563.901367 
	C535.365295,563.424744 535.979614,560.354004 533.487305,559.492065 
	C531.105530,560.269409 530.341980,562.779358 529.408020,564.961182 
	C523.270447,579.299500 520.228516,594.445251 517.806946,610.151367 
z"/>
</svg>
