<svg version="1.1" id="Layer_1" xmlns="http://www.w3.org/2000/svg" xmlns:xlink="http://www.w3.org/1999/xlink" x="0px" y="0px"
	 width="100%" viewBox="0 0 2048 2048" enable-background="new 0 0 2048 2048" xml:space="preserve">
<path fill="#000000" opacity="1.000000" stroke="none" 
	d="
M1159.000000,2049.000000 
	C772.666687,2049.000000 386.833344,2049.000000 1.000000,2049.000000 
	C1.000000,1366.333374 1.000000,683.666687 1.000000,1.000000 
	C683.666687,1.000000 1366.333374,1.000000 2049.000000,1.000000 
	C2049.000000,683.666687 2049.000000,1366.333374 2049.000000,2049.000000 
	C1752.500000,2049.000000 1456.000000,2049.000000 1159.000000,2049.000000 
M406.542725,645.938293 
	C406.723694,645.630066 406.904694,645.321777 407.015472,645.014221 
	C407.015472,645.014221 407.020844,645.084229 407.736450,644.998962 
	C418.535278,638.121216 429.251312,631.109253 440.148346,624.390747 
	C473.730621,603.685791 507.663605,583.699524 544.362244,568.732971 
	C572.180115,557.388184 600.982361,551.108276 630.869934,551.245361 
	C650.684570,551.336182 670.523132,553.270569 690.287292,555.076721 
	C705.959717,556.508850 720.709778,561.908875 734.455139,569.319763 
	C750.579346,578.013306 765.562439,588.496277 779.421631,600.627625 
	C800.171448,618.790527 817.524719,639.583923 830.065857,664.180908 
	C844.742676,692.966553 854.360413,723.242615 857.314209,755.630920 
	C858.866089,772.646362 857.618652,789.382446 854.574707,805.984436 
	C849.895142,831.507568 842.114685,856.252441 832.875977,880.431519 
	C824.170349,903.215576 814.196716,925.515137 804.185608,948.357666 
	C802.087891,952.914673 799.990173,957.471680 797.298523,962.382996 
	C786.252197,981.552368 775.205933,1000.721741 764.333801,1019.588867 
	C765.129456,1019.449768 766.404602,1019.038269 767.681641,1019.032349 
	C781.239563,1018.969849 794.821594,1018.457397 808.349976,1019.083984 
	C825.976440,1019.900330 843.607666,1021.198303 861.148804,1023.100891 
	C877.451233,1024.869141 893.844910,1026.757446 909.835083,1030.254272 
	C949.607361,1038.952271 989.207092,1048.452637 1028.812134,1057.899170 
	C1075.794556,1069.105347 1121.959717,1083.242920 1167.409912,1099.440552 
	C1200.390747,1111.194336 1232.864380,1124.486206 1265.091919,1138.202148 
	C1289.370117,1148.534790 1312.926270,1160.571045 1336.744751,1171.972290 
	C1343.076294,1175.003052 1349.190430,1178.488159 1355.497070,1181.813599 
	C1356.032104,1176.947266 1356.878540,1172.709351 1356.898560,1168.467407 
	C1356.984985,1150.143677 1356.829346,1131.818970 1356.851074,1112.691772 
	C1356.567871,1109.575928 1356.221436,1106.464233 1356.011597,1103.343384 
	C1354.665894,1083.330811 1353.640747,1063.291626 1351.941528,1043.309570 
	C1350.275024,1023.711060 1348.732910,1004.044800 1345.695801,984.633667 
	C1341.357300,956.904846 1336.412231,929.228088 1330.453857,901.805542 
	C1321.359985,859.953247 1306.917969,819.831360 1287.600830,781.581726 
	C1272.766235,752.207642 1257.908081,722.821533 1242.064453,693.987976 
	C1227.986450,668.367371 1213.051514,643.179749 1197.584961,618.368225 
	C1168.697510,572.027039 1132.231079,531.740234 1094.670288,492.439545 
	C1083.405151,480.652710 1071.831909,469.075836 1059.580444,458.337494 
	C1043.668945,444.391205 1027.365845,430.810577 1010.453369,418.108246 
	C989.326904,402.240814 965.439270,390.942200 941.779053,379.386658 
	C912.119873,364.901276 881.807678,352.020172 849.949768,343.181366 
	C825.606140,336.427368 800.802490,332.494629 775.515381,330.803009 
	C750.517212,329.130798 725.924255,330.267365 701.665161,336.507874 
	C657.104187,347.970947 614.565796,364.865570 573.367004,385.170990 
	C547.050110,398.141663 521.697205,412.833710 497.216278,429.048401 
	C476.143524,443.005768 455.844910,457.982086 437.996277,475.884460 
	C426.454102,487.461334 416.057861,500.180725 404.620972,512.901611 
	C403.235107,514.332520 401.682373,515.637024 400.488251,517.213135 
	C379.865662,544.432495 361.621124,573.108154 347.376038,604.223633 
	C339.154633,622.181519 331.277924,640.222839 333.006317,661.704651 
	C333.006317,673.982483 333.006317,686.260315 333.006317,699.625000 
	C335.887054,698.649902 338.452881,698.401672 340.212067,697.079895 
	C348.332153,690.978577 356.211456,684.557617 364.207367,678.289917 
	C377.451782,667.908081 390.719360,657.555847 404.589325,647.020081 
	C405.084564,646.684998 405.579803,646.349915 406.007263,646.005859 
	C406.007263,646.005859 406.005035,646.074219 406.542725,645.938293 
M636.660034,1257.112183 
	C650.976868,1265.136108 665.521912,1272.782104 679.564392,1281.260376 
	C711.739319,1300.685913 743.937683,1320.097290 775.606262,1340.328857 
	C797.747986,1354.474121 819.364319,1369.506226 840.603394,1384.982178 
	C863.339661,1401.549194 885.356201,1419.103760 907.690979,1436.222046 
	C926.242126,1450.440063 944.559265,1464.977783 963.406616,1478.791870 
	C995.375671,1502.223511 1028.973022,1523.131958 1064.111816,1541.497803 
	C1095.396484,1557.849121 1127.713257,1571.953613 1160.638916,1584.618896 
	C1175.536133,1590.349609 1190.777100,1595.186157 1205.862183,1600.428345 
	C1205.732300,1599.197144 1205.311035,1598.736816 1204.788330,1598.509521 
	C1185.259277,1590.020630 1165.487793,1582.045654 1146.249878,1572.942993 
	C1127.550049,1564.094849 1109.059082,1554.685913 1091.083374,1544.456177 
	C1065.859497,1530.101807 1040.903198,1515.226562 1016.359924,1499.738159 
	C974.724792,1473.463623 936.337036,1442.724854 897.641968,1412.382812 
	C871.904480,1392.201050 845.482483,1372.825562 818.619446,1354.165283 
	C793.282837,1336.565186 767.224915,1319.959961 741.016113,1303.670532 
	C711.048523,1285.044678 680.591187,1267.205078 650.278809,1249.137939 
	C645.107605,1246.055542 639.568970,1243.595093 634.252075,1240.750122 
	C630.813660,1238.910278 627.469971,1236.893188 623.757263,1234.336914 
	C615.507507,1229.905518 607.429138,1225.111572 598.974548,1221.113281 
	C577.156128,1210.795044 555.518127,1199.969116 533.160645,1190.950928 
	C508.212799,1180.887695 482.037048,1175.042725 454.898499,1175.059204 
	C443.621582,1175.066040 432.287750,1175.082886 421.083282,1176.165649 
	C408.205597,1177.410522 395.256012,1179.038818 382.677368,1181.962280 
	C367.253845,1185.546753 352.001770,1190.115845 337.004944,1195.225830 
	C318.977020,1201.368774 302.672791,1211.025757 288.218933,1223.423950 
	C273.079803,1236.409912 261.420929,1252.097534 254.580017,1271.015503 
	C246.808853,1292.506348 246.492386,1313.818970 256.942474,1334.643433 
	C265.171478,1351.041748 276.062653,1365.409912 290.445526,1376.908447 
	C301.486145,1385.734863 312.118011,1395.313354 324.086365,1402.681885 
	C341.938843,1413.673096 360.475006,1423.699097 379.342560,1432.853149 
	C396.426575,1441.141968 414.139099,1448.261108 431.941040,1454.915405 
	C459.712677,1465.296387 488.161438,1473.673828 517.175903,1479.817017 
	C535.765869,1483.753174 554.527161,1486.975464 573.312622,1489.859985 
	C586.153503,1491.831665 599.148743,1492.914673 612.110229,1493.956177 
	C631.374939,1495.504395 650.661926,1497.578613 669.955566,1497.765137 
	C695.672485,1498.013550 721.413513,1496.888672 747.127014,1495.905762 
	C759.310913,1495.439941 771.516968,1494.399048 783.602173,1492.787720 
	C800.012756,1490.599854 816.346497,1487.781616 832.655884,1484.908569 
	C842.089172,1483.246826 851.409851,1480.946167 860.781250,1478.932983 
	C860.726562,1478.289307 860.671936,1477.645752 860.617310,1477.002075 
	C847.671509,1477.002075 834.580688,1478.225342 821.814453,1476.711304 
	C803.302917,1474.515991 784.930176,1470.782837 766.691467,1466.816772 
	C758.305908,1464.993286 750.263062,1461.329346 742.319397,1457.908813 
	C740.114136,1456.958984 737.233826,1453.648193 737.510010,1451.860229 
	C737.854370,1449.630127 741.024597,1447.704468 743.219910,1445.955078 
	C744.138306,1445.223511 745.672302,1445.122070 746.950989,1445.006714 
	C759.914062,1443.837524 772.882263,1442.724609 786.278931,1441.558594 
	C785.177063,1440.666870 784.265442,1439.803711 783.236938,1439.115479 
	C762.648315,1425.336914 741.881531,1411.816895 721.503052,1397.734863 
	C707.190125,1387.844238 693.235657,1377.411255 679.425232,1366.823730 
	C664.276855,1355.210205 649.191223,1343.480591 634.609985,1331.171509 
	C621.095093,1319.762695 608.150696,1307.662231 595.250854,1295.551270 
	C591.964233,1292.465454 589.516418,1288.351318 587.196899,1284.407593 
	C584.774109,1280.288452 586.003845,1278.374878 590.824341,1279.112549 
	C594.430603,1279.664429 598.118774,1281.060303 601.277527,1282.918335 
	C615.140381,1291.072632 628.519653,1300.091919 642.637512,1307.760498 
	C669.619934,1322.417236 696.910217,1336.515381 724.241516,1350.515625 
	C731.821594,1354.398438 739.995972,1357.121216 747.897644,1360.376221 
	C747.112305,1358.605347 745.916870,1357.751587 744.679688,1356.963623 
	C717.709106,1339.785889 691.026733,1322.131592 663.676514,1305.580933 
	C636.854736,1289.350220 609.708191,1273.575806 582.041504,1258.845947 
	C557.980957,1246.036011 533.119751,1234.695312 508.376312,1223.214111 
	C490.524200,1214.930664 472.253906,1207.551758 454.239777,1199.611450 
	C449.868835,1197.685059 445.772064,1195.136597 441.549225,1192.874268 
	C441.680206,1192.324707 441.811188,1191.775269 441.942169,1191.225708 
	C443.057587,1190.814819 444.165588,1190.073364 445.289612,1190.048218 
	C451.341583,1189.913208 457.399719,1189.842529 463.451660,1189.959717 
	C478.723114,1190.255493 493.205841,1194.545166 507.672913,1198.883301 
	C534.175293,1206.830444 559.108643,1218.592529 583.936951,1230.540405 
	C600.793884,1238.652344 617.362366,1247.363770 634.478638,1255.942505 
	C634.478638,1255.942505 634.911499,1256.021973 635.099365,1256.513916 
	C635.407410,1256.609131 635.715515,1256.704468 636.660034,1257.112183 
M1564.267090,679.083191 
	C1562.194824,681.915283 1559.679443,684.532959 1558.176270,687.640381 
	C1556.702881,690.686462 1556.352539,694.259094 1555.349365,697.552002 
	C1549.665039,716.209900 1540.069946,732.680969 1527.470581,747.499023 
	C1513.839966,763.530090 1498.203003,777.122803 1479.047607,786.073364 
	C1470.466431,790.083008 1461.313477,792.880798 1452.382812,796.126099 
	C1446.337769,798.322632 1442.923584,802.702332 1442.230835,808.884521 
	C1441.637817,814.177429 1444.580444,818.385010 1448.824585,820.864563 
	C1452.249634,822.865662 1456.486450,823.521240 1460.404541,824.627136 
	C1478.391724,829.704407 1494.230103,838.674438 1508.442505,850.727356 
	C1533.418335,871.908447 1550.865356,897.746521 1558.053833,930.046692 
	C1558.937988,934.020020 1560.819824,937.432434 1565.460938,939.548096 
	C1573.236206,942.721619 1581.162598,939.285828 1583.944092,931.487061 
	C1584.934326,928.710815 1585.845825,925.903687 1586.700073,923.082336 
	C1596.055420,892.185120 1614.339478,867.509216 1639.458740,847.675171 
	C1654.765503,835.588928 1671.843384,827.106873 1691.005859,822.920288 
	C1697.532837,821.494324 1701.742554,816.370728 1702.003662,810.470398 
	C1702.296631,803.845642 1699.002930,798.808044 1692.402222,796.431458 
	C1688.859497,795.155945 1685.080322,794.552490 1681.487915,793.397217 
	C1642.785400,780.951294 1615.356567,755.079712 1596.222534,720.117615 
	C1590.470581,709.607422 1587.182007,697.714722 1583.113159,686.330933 
	C1580.765381,679.762817 1571.569824,673.864746 1564.267090,679.083191 
M663.017761,1153.480713 
	C663.678162,1153.969238 664.296326,1154.531982 665.005188,1154.935425 
	C684.526611,1166.044434 704.108765,1177.047729 723.574707,1188.252808 
	C755.417236,1206.582397 787.259338,1224.914795 818.961304,1243.485474 
	C844.719604,1258.574707 870.227844,1274.090210 895.943237,1289.253296 
	C903.508911,1293.714478 911.402649,1297.619141 919.743591,1302.120972 
	C920.534302,1302.716553 921.267639,1303.415039 922.124146,1303.892456 
	C942.783813,1315.412598 963.264648,1327.271973 984.170227,1338.328125 
	C1018.921082,1356.706909 1054.769287,1372.592285 1092.573975,1383.754028 
	C1122.843262,1392.690796 1153.747803,1398.229248 1185.237915,1399.741089 
	C1203.459106,1400.615967 1221.772217,1400.494385 1240.008911,1399.842896 
	C1254.842651,1399.312988 1269.724976,1398.002441 1284.402954,1395.812500 
	C1301.763550,1393.222168 1318.572266,1388.268677 1334.603882,1379.002075 
	C1335.771606,1378.391357 1336.994629,1377.866455 1338.097778,1377.155640 
	C1344.541504,1373.002563 1349.861572,1369.665649 1348.458984,1359.333130 
	C1346.279785,1343.281128 1347.093262,1326.791260 1347.079834,1310.486694 
	C1347.068481,1296.683105 1347.681641,1282.879150 1348.027344,1269.075439 
	C1348.043945,1268.413696 1348.161865,1267.755249 1348.204346,1267.093384 
	C1349.137817,1252.529419 1350.119141,1237.968140 1350.913208,1223.396606 
	C1350.988037,1222.022949 1350.288452,1220.024658 1349.253784,1219.274292 
	C1344.885376,1216.106079 1340.474731,1212.865479 1335.682129,1210.434692 
	C1307.739624,1196.262451 1279.959473,1181.725586 1251.600342,1168.429810 
	C1213.757324,1150.687256 1174.651001,1135.900513 1134.858154,1123.182129 
	C1099.447266,1111.864136 1063.815796,1101.123291 1027.924927,1091.451660 
	C993.385315,1082.144165 958.465698,1074.190796 923.559814,1066.322266 
	C906.262085,1062.423096 888.655640,1059.824219 871.121094,1057.068726 
	C859.549438,1055.250488 847.887695,1053.798462 836.210999,1052.906494 
	C820.506531,1051.706665 804.739258,1050.432373 789.016418,1050.624268 
	C773.825439,1050.809570 758.629395,1052.557861 743.493958,1054.168457 
	C738.645081,1054.684448 732.717041,1055.631836 729.514282,1058.706543 
	C723.903381,1064.092773 720.157227,1071.381592 715.380127,1077.684082 
	C702.925659,1094.115356 690.608643,1110.663696 677.685242,1126.721313 
	C671.194275,1134.786499 663.501953,1141.884766 655.924133,1149.872192 
	C658.051636,1150.817017 660.341614,1151.833984 663.017761,1153.480713 
M1343.215576,1412.005859 
	C1339.310791,1413.678711 1335.434814,1415.423096 1331.496582,1417.013184 
	C1301.162354,1429.261963 1269.227173,1432.871338 1236.931396,1433.875488 
	C1222.178833,1434.334106 1207.352295,1433.887817 1192.614258,1432.971436 
	C1173.710449,1431.795898 1154.690186,1430.790894 1136.036865,1427.761841 
	C1116.543823,1424.596191 1097.156860,1420.021118 1078.223511,1414.383545 
	C1060.535278,1409.116577 1043.166504,1402.410400 1026.262573,1394.963745 
	C1002.711121,1384.588379 979.361389,1373.621460 956.590881,1361.642822 
	C931.338318,1348.358521 906.707397,1333.869141 882.040405,1319.501831 
	C856.261780,1304.487061 830.813965,1288.905518 805.122742,1273.739014 
	C787.889893,1263.565796 770.493896,1253.668579 753.154419,1243.676392 
	C737.378967,1234.585693 721.618713,1225.467407 705.776917,1216.493530 
	C698.266724,1212.239258 690.582031,1208.293091 682.264648,1204.057251 
	C680.036011,1202.486084 677.906799,1200.744995 675.561829,1199.372681 
	C663.922974,1192.561646 651.947754,1186.283813 640.608032,1179.011841 
	C614.179932,1162.064209 586.159973,1148.590698 556.332764,1138.869385 
	C531.104553,1130.647095 505.347687,1125.179321 478.834473,1122.887207 
	C456.360748,1120.944336 434.142761,1122.083496 412.104706,1126.307007 
	C388.631592,1130.805420 366.350098,1138.952881 345.345459,1150.387939 
	C338.105255,1154.329468 331.172058,1158.834961 324.098572,1163.082886 
	C324.976196,1163.846680 325.514801,1163.989990 325.933167,1163.826294 
	C358.806915,1150.956421 393.114990,1144.448975 428.146637,1142.193970 
	C449.651184,1140.809692 471.169250,1142.117798 492.581085,1145.729980 
	C523.260620,1150.905396 552.134094,1161.206177 580.043152,1174.522461 
	C617.757202,1192.516724 654.428345,1212.488281 690.213318,1234.041626 
	C723.294556,1253.966309 756.514709,1273.707397 788.935791,1294.670776 
	C840.690613,1328.134888 891.160828,1363.400391 938.737183,1402.784790 
	C968.908875,1427.761353 1001.045532,1450.237915 1033.946777,1471.613892 
	C1078.664307,1500.666992 1124.990601,1526.704102 1173.391479,1549.080200 
	C1204.533813,1563.477661 1236.319824,1576.184814 1269.072510,1586.463257 
	C1297.447021,1595.367554 1326.155151,1602.699585 1355.622925,1607.114258 
	C1381.392578,1610.975220 1407.275391,1612.888428 1433.284668,1612.930542 
	C1454.573853,1612.965088 1475.873291,1612.615356 1497.150879,1611.910645 
	C1513.705444,1611.362305 1530.265259,1610.368286 1546.764038,1608.908203 
	C1564.332397,1607.353516 1581.848999,1605.156616 1599.357056,1602.988770 
	C1624.050659,1599.931396 1648.084961,1594.119507 1671.273682,1584.998169 
	C1689.651855,1577.769165 1707.370605,1569.213379 1720.880005,1554.367188 
	C1735.064209,1538.779663 1738.104858,1523.476196 1728.146240,1504.633911 
	C1721.544067,1492.142456 1711.309814,1482.879883 1700.408936,1474.487915 
	C1674.955566,1454.893311 1646.510376,1440.448853 1616.952393,1428.265625 
	C1581.401367,1413.612305 1544.302368,1403.819092 1506.933350,1395.162109 
	C1485.842407,1390.276367 1464.562744,1386.157227 1443.279053,1382.166992 
	C1426.967285,1379.108887 1410.522583,1376.754761 1394.123535,1374.172485 
	C1389.511841,1373.446167 1385.492188,1373.787476 1383.356079,1379.211182 
	C1382.255005,1382.006958 1379.859253,1384.354980 1377.821899,1386.709351 
	C1368.400391,1397.596802 1356.238037,1404.831055 1343.215576,1412.005859 
M1540.068359,1151.960205 
	C1539.301270,1162.268555 1542.150879,1170.704712 1551.652344,1176.276489 
	C1561.266357,1181.914307 1572.765869,1180.936890 1580.856934,1173.280884 
	C1588.604736,1165.949707 1590.302979,1153.035400 1584.758667,1143.610229 
	C1579.172241,1134.113403 1567.243408,1129.440063 1556.943848,1132.682007 
	C1547.773071,1135.568726 1542.218628,1141.731567 1540.068359,1151.960205 
M544.798279,879.877808 
	C538.191589,871.166199 529.580627,867.120667 518.840027,870.153809 
	C506.799591,873.554138 500.001007,883.323975 501.381622,894.493042 
	C503.393341,910.767578 514.093323,916.782349 525.356018,916.435120 
	C544.629272,915.840820 554.184814,896.301147 544.798279,879.877808 
M1338.956665,469.768188 
	C1327.746094,469.806549 1319.072388,482.869110 1323.093872,494.074036 
	C1326.234619,502.825287 1334.887939,507.764801 1344.497437,505.916260 
	C1352.251587,504.424652 1358.417480,496.378540 1358.120972,488.314789 
	C1357.708496,477.100647 1352.532715,471.425262 1338.956665,469.768188 
M575.590210,736.244324 
	C574.568298,738.654907 573.290283,740.991882 572.572388,743.489868 
	C570.408203,751.019958 575.009949,760.673584 582.079346,763.845886 
	C590.002930,767.401550 598.932312,764.754517 604.171387,758.623535 
	C610.071167,751.719360 609.057678,739.365479 601.742859,733.256409 
	C594.109680,726.881470 584.056763,727.782654 575.590210,736.244324 
M1556.115967,1646.837891 
	C1562.438354,1645.888184 1568.808716,1645.181030 1575.073853,1643.941650 
	C1591.274414,1640.737061 1607.442139,1637.361572 1623.588745,1633.893921 
	C1626.518066,1633.264771 1629.283936,1631.875732 1632.125366,1630.837524 
	C1572.144775,1641.754761 1511.676758,1645.136963 1451.015137,1646.510986 
	C1463.366333,1647.434448 1475.720581,1648.887451 1488.065063,1648.807983 
	C1510.444946,1648.664062 1532.818848,1647.607056 1556.115967,1646.837891 
z"/>
<path fill="#4CB9BB" opacity="1.000000" stroke="none" 
	d="
M333.105957,660.717468 
	C331.277924,640.222839 339.154633,622.181519 347.376038,604.223633 
	C361.621124,573.108154 379.865662,544.432495 400.488251,517.213135 
	C401.682373,515.637024 403.235107,514.332520 405.235565,512.721130 
	C408.565247,511.086456 411.543579,509.973419 413.948883,508.117737 
	C423.298950,500.903931 432.249786,493.160034 441.744904,486.149353 
	C467.047546,467.467163 493.593140,450.693115 521.078674,435.397247 
	C565.406006,410.728821 611.172852,389.145569 659.288147,372.997589 
	C679.433655,366.236603 699.996033,359.830017 720.883606,356.361450 
	C758.824097,350.061066 796.660522,354.309357 833.847534,363.422546 
	C871.766357,372.715057 907.088196,388.780792 941.974487,405.935211 
	C974.751221,422.052307 1005.656921,440.993286 1032.012329,466.474915 
	C1055.351440,489.040192 1078.484131,511.863007 1100.793945,535.437012 
	C1124.274902,560.248474 1146.489014,586.286255 1165.534424,614.730347 
	C1205.378296,674.236694 1239.017456,737.277222 1270.079224,801.695557 
	C1292.586426,848.372498 1308.172363,897.627625 1321.895386,947.453735 
	C1336.821045,1001.646851 1344.848877,1057.287598 1355.303833,1112.661621 
	C1350.906616,1113.646973 1346.863403,1114.656982 1342.770264,1114.936646 
	C1312.188965,1117.025879 1282.768311,1111.101562 1254.013794,1101.371338 
	C1207.709839,1085.702271 1164.388428,1063.576782 1122.966797,1037.982422 
	C1090.129272,1017.692261 1058.093628,996.032410 1026.452881,973.906982 
	C1010.571472,962.801636 996.091431,949.612122 981.509705,936.761414 
	C973.890991,930.047180 968.663391,921.150635 967.851257,910.773071 
	C967.207642,902.549866 967.153381,894.097595 968.291504,885.950256 
	C972.730408,854.173035 977.886230,822.496826 982.505615,790.743774 
	C986.096375,766.061707 989.711426,741.363586 989.044434,716.290710 
	C988.792664,706.824890 986.646179,697.869934 982.694275,689.289429 
	C973.436401,669.188232 959.428711,652.420654 944.653503,636.375061 
	C920.367432,610.000916 893.471313,586.358215 865.612305,563.853210 
	C845.422913,547.543884 825.197632,531.230774 804.284607,515.878113 
	C780.288818,498.262421 755.911072,481.097931 730.962158,464.870758 
	C709.003418,450.588348 685.076660,448.349915 660.932190,459.540375 
	C632.535950,472.701477 604.060852,485.775604 576.279236,500.160614 
	C532.611877,522.771179 490.980042,548.916016 450.651733,577.014709 
	C411.187897,604.510986 372.265808,632.784851 333.105957,660.717468 
M931.217773,516.049561 
	C940.799500,514.467102 946.630981,506.491516 944.731079,497.567993 
	C942.848206,488.724579 933.922729,483.658722 924.658691,486.175323 
	C917.631897,488.084167 913.040161,495.541504 914.131409,503.272583 
	C915.283447,511.434998 920.958435,515.916443 931.217773,516.049561 
M1269.481323,957.718384 
	C1272.771362,948.725525 1270.394287,941.592407 1262.660522,937.250061 
	C1256.729126,933.919739 1248.159058,935.756897 1243.767090,941.300354 
	C1238.422485,948.046143 1239.627319,958.025635 1246.393677,963.054382 
	C1254.069458,968.759094 1263.337402,966.867432 1269.481323,957.718384 
M1079.678345,703.231628 
	C1080.310059,702.460083 1080.984863,701.719543 1081.566772,700.911987 
	C1086.416870,694.180542 1085.384277,685.827515 1079.037231,680.303650 
	C1073.300659,675.310974 1064.090820,675.449463 1058.497681,680.612549 
	C1053.173950,685.526978 1052.267456,695.019165 1056.578491,700.710449 
	C1062.039917,707.920410 1071.002686,709.123108 1079.678345,703.231628 
z"/>
<path fill="#F89655" opacity="1.000000" stroke="none" 
	d="
M1343.955688,1411.889893 
	C1356.238037,1404.831055 1368.400391,1397.596802 1377.821899,1386.709351 
	C1379.859253,1384.354980 1382.255005,1382.006958 1383.356079,1379.211182 
	C1385.492188,1373.787476 1389.511841,1373.446167 1394.123535,1374.172485 
	C1410.522583,1376.754761 1426.967285,1379.108887 1443.279053,1382.166992 
	C1464.562744,1386.157227 1485.842407,1390.276367 1506.933350,1395.162109 
	C1544.302368,1403.819092 1581.401367,1413.612305 1616.952393,1428.265625 
	C1646.510376,1440.448853 1674.955566,1454.893311 1700.408936,1474.487915 
	C1711.309814,1482.879883 1721.544067,1492.142456 1728.146240,1504.633911 
	C1738.104858,1523.476196 1735.064209,1538.779663 1720.880005,1554.367188 
	C1707.370605,1569.213379 1689.651855,1577.769165 1671.273682,1584.998169 
	C1648.084961,1594.119507 1624.050659,1599.931396 1599.357056,1602.988770 
	C1581.848999,1605.156616 1564.332397,1607.353516 1546.764038,1608.908203 
	C1530.265259,1610.368286 1513.705444,1611.362305 1497.150879,1611.910645 
	C1475.873291,1612.615356 1454.573853,1612.965088 1433.284668,1612.930542 
	C1407.275391,1612.888428 1381.392578,1610.975220 1355.622925,1607.114258 
	C1326.155151,1602.699585 1297.447021,1595.367554 1269.072510,1586.463257 
	C1236.319824,1576.184814 1204.533813,1563.477661 1173.391479,1549.080200 
	C1124.990601,1526.704102 1078.664307,1500.666992 1033.946777,1471.613892 
	C1001.045532,1450.237915 968.908875,1427.761353 938.737183,1402.784790 
	C891.160828,1363.400391 840.690613,1328.134888 788.935791,1294.670776 
	C756.514709,1273.707397 723.294556,1253.966309 690.213318,1234.041626 
	C654.428345,1212.488281 617.757202,1192.516724 580.043152,1174.522461 
	C552.134094,1161.206177 523.260620,1150.905396 492.581085,1145.729980 
	C471.169250,1142.117798 449.651184,1140.809692 428.146637,1142.193970 
	C393.114990,1144.448975 358.806915,1150.956421 325.933167,1163.826294 
	C325.514801,1163.989990 324.976196,1163.846680 324.098572,1163.082886 
	C331.172058,1158.834961 338.105255,1154.329468 345.345459,1150.387939 
	C366.350098,1138.952881 388.631592,1130.805420 412.104706,1126.307007 
	C434.142761,1122.083496 456.360748,1120.944336 478.834473,1122.887207 
	C505.347687,1125.179321 531.104553,1130.647095 556.332764,1138.869385 
	C586.159973,1148.590698 614.179932,1162.064209 640.608032,1179.011841 
	C651.947754,1186.283813 663.922974,1192.561646 675.561829,1199.372681 
	C677.906799,1200.744995 680.036011,1202.486084 682.798584,1204.406738 
	C697.033752,1213.881592 710.508240,1223.371460 724.478577,1232.064331 
	C767.176758,1258.632446 810.208862,1284.665283 852.830383,1311.354492 
	C881.621521,1329.383301 909.849487,1348.308960 938.494934,1366.573730 
	C963.208313,1382.331177 987.949463,1398.064453 1013.057068,1413.179321 
	C1038.608154,1428.561157 1064.933960,1442.593506 1092.567993,1453.945190 
	C1130.106079,1469.365112 1168.813110,1480.869141 1208.703247,1488.513306 
	C1251.704468,1496.753540 1294.937378,1500.834106 1338.751953,1498.165771 
	C1353.932495,1497.241333 1367.271362,1491.874146 1379.580322,1483.539917 
	C1388.135498,1477.747559 1390.799561,1470.495850 1387.986206,1460.525757 
	C1386.653076,1455.800781 1384.787964,1450.834961 1381.802612,1447.052856 
	C1376.472168,1440.299561 1370.426147,1434.017822 1364.089478,1428.179077 
	C1357.754150,1422.341431 1350.696655,1417.287476 1343.955688,1411.889893 
z"/>
<path fill="#6669AD" opacity="1.000000" stroke="none" 
	d="
M333.056152,661.211060 
	C372.265808,632.784851 411.187897,604.510986 450.651733,577.014709 
	C490.980042,548.916016 532.611877,522.771179 576.279236,500.160614 
	C604.060852,485.775604 632.535950,472.701477 660.932190,459.540375 
	C685.076660,448.349915 709.003418,450.588348 730.962158,464.870758 
	C755.911072,481.097931 780.288818,498.262421 804.284607,515.878113 
	C825.197632,531.230774 845.422913,547.543884 865.612305,563.853210 
	C893.471313,586.358215 920.367432,610.000916 944.653503,636.375061 
	C959.428711,652.420654 973.436401,669.188232 982.694275,689.289429 
	C986.646179,697.869934 988.792664,706.824890 989.044434,716.290710 
	C989.711426,741.363586 986.096375,766.061707 982.505615,790.743774 
	C977.886230,822.496826 972.730408,854.173035 968.291504,885.950256 
	C967.153381,894.097595 967.207642,902.549866 967.851257,910.773071 
	C968.663391,921.150635 973.890991,930.047180 981.509705,936.761414 
	C996.091431,949.612122 1010.571472,962.801636 1026.452881,973.906982 
	C1058.093628,996.032410 1090.129272,1017.692261 1122.966797,1037.982422 
	C1164.388428,1063.576782 1207.709839,1085.702271 1254.013794,1101.371338 
	C1282.768311,1111.101562 1312.188965,1117.025879 1342.770264,1114.936646 
	C1346.863403,1114.656982 1350.906616,1113.646973 1355.454834,1112.792480 
	C1356.211792,1112.904785 1356.486816,1113.199707 1356.761719,1113.494507 
	C1356.829346,1131.818970 1356.984985,1150.143677 1356.898560,1168.467407 
	C1356.878540,1172.709351 1356.032104,1176.947266 1355.497070,1181.813599 
	C1349.190430,1178.488159 1343.076294,1175.003052 1336.744751,1171.972290 
	C1312.926270,1160.571045 1289.370117,1148.534790 1265.091919,1138.202148 
	C1232.864380,1124.486206 1200.390747,1111.194336 1167.409912,1099.440552 
	C1121.959717,1083.242920 1075.794556,1069.105347 1028.812134,1057.899170 
	C989.207092,1048.452637 949.607361,1038.952271 909.835083,1030.254272 
	C893.844910,1026.757446 877.451233,1024.869141 861.148804,1023.100891 
	C843.607666,1021.198303 825.976440,1019.900330 808.349976,1019.083984 
	C794.821594,1018.457397 781.239563,1018.969849 767.681641,1019.032349 
	C766.404602,1019.038269 765.129456,1019.449768 764.333801,1019.588867 
	C775.205933,1000.721741 786.252197,981.552368 797.924194,962.104126 
	C801.034851,957.216919 803.519775,952.608521 806.177979,947.711853 
	C811.068481,939.417664 816.183289,931.616516 820.430603,923.368652 
	C834.836792,895.393616 847.742615,866.763306 858.696228,837.212036 
	C871.314148,803.170837 877.237061,768.449463 871.704834,732.304138 
	C863.334167,677.613647 840.322632,630.552673 798.676331,593.262756 
	C776.261414,573.192688 751.826904,556.241699 723.383423,546.022644 
	C689.578186,533.877319 654.435974,533.439514 619.209290,536.636963 
	C585.526123,539.694275 554.473511,551.506042 524.721802,567.068237 
	C486.254913,587.189148 450.257446,611.155640 415.646851,637.263794 
	C412.561035,639.591553 409.886444,642.464478 407.020844,645.084229 
	C407.020844,645.084229 407.015472,645.014221 406.742676,645.020752 
	C406.314911,645.376221 406.159973,645.725220 406.005066,646.074219 
	C406.005035,646.074219 406.007263,646.005859 405.707031,645.985046 
	C404.930237,646.373230 404.453705,646.782166 403.977173,647.191162 
	C390.719360,657.555847 377.451782,667.908081 364.207367,678.289917 
	C356.211456,684.557617 348.332153,690.978577 340.212067,697.079895 
	C338.452881,698.401672 335.887054,698.649902 333.006317,699.625000 
	C333.006317,686.260315 333.006317,673.982483 333.056152,661.211060 
M921.275391,950.734741 
	C924.559387,959.421631 932.572083,963.799683 940.418823,961.194580 
	C948.684082,958.450378 952.680603,950.553833 950.079468,942.105774 
	C947.781677,934.642883 940.269531,930.444580 932.339905,932.191589 
	C924.123657,934.001709 920.121948,940.305359 921.275391,950.734741 
z"/>
<path fill="#B83F72" opacity="1.000000" stroke="none" 
	d="
M634.059814,1255.807129 
	C617.362366,1247.363770 600.793884,1238.652344 583.936951,1230.540405 
	C559.108643,1218.592529 534.175293,1206.830444 507.672913,1198.883301 
	C493.205841,1194.545166 478.723114,1190.255493 463.451660,1189.959717 
	C457.399719,1189.842529 451.341583,1189.913208 445.289612,1190.048218 
	C444.165588,1190.073364 443.057587,1190.814819 441.942169,1191.225708 
	C441.811188,1191.775269 441.680206,1192.324707 441.549225,1192.874268 
	C445.772064,1195.136597 449.868835,1197.685059 454.239777,1199.611450 
	C472.253906,1207.551758 490.524200,1214.930664 508.376312,1223.214111 
	C533.119751,1234.695312 557.980957,1246.036011 582.041504,1258.845947 
	C609.708191,1273.575806 636.854736,1289.350220 663.676514,1305.580933 
	C691.026733,1322.131592 717.709106,1339.785889 744.679688,1356.963623 
	C745.916870,1357.751587 747.112305,1358.605347 747.897644,1360.376221 
	C739.995972,1357.121216 731.821594,1354.398438 724.241516,1350.515625 
	C696.910217,1336.515381 669.619934,1322.417236 642.637512,1307.760498 
	C628.519653,1300.091919 615.140381,1291.072632 601.277527,1282.918335 
	C598.118774,1281.060303 594.430603,1279.664429 590.824341,1279.112549 
	C586.003845,1278.374878 584.774109,1280.288452 587.196899,1284.407593 
	C589.516418,1288.351318 591.964233,1292.465454 595.250854,1295.551270 
	C608.150696,1307.662231 621.095093,1319.762695 634.609985,1331.171509 
	C649.191223,1343.480591 664.276855,1355.210205 679.425232,1366.823730 
	C693.235657,1377.411255 707.190125,1387.844238 721.503052,1397.734863 
	C741.881531,1411.816895 762.648315,1425.336914 783.236938,1439.115479 
	C784.265442,1439.803711 785.177063,1440.666870 786.278931,1441.558594 
	C772.882263,1442.724609 759.914062,1443.837524 746.950989,1445.006714 
	C745.672302,1445.122070 744.138306,1445.223511 743.219910,1445.955078 
	C741.024597,1447.704468 737.854370,1449.630127 737.510010,1451.860229 
	C737.233826,1453.648193 740.114136,1456.958984 742.319397,1457.908813 
	C750.263062,1461.329346 758.305908,1464.993286 766.691467,1466.816772 
	C784.930176,1470.782837 803.302917,1474.515991 821.814453,1476.711304 
	C834.580688,1478.225342 847.671509,1477.002075 860.617310,1477.002075 
	C860.671936,1477.645752 860.726562,1478.289307 860.781250,1478.932983 
	C851.409851,1480.946167 842.089172,1483.246826 832.655884,1484.908569 
	C816.346497,1487.781616 800.012756,1490.599854 783.602173,1492.787720 
	C771.516968,1494.399048 759.310913,1495.439941 747.127014,1495.905762 
	C721.413513,1496.888672 695.672485,1498.013550 669.955566,1497.765137 
	C650.661926,1497.578613 631.374939,1495.504395 612.110229,1493.956177 
	C599.148743,1492.914673 586.153503,1491.831665 573.312622,1489.859985 
	C554.527161,1486.975464 535.765869,1483.753174 517.175903,1479.817017 
	C488.161438,1473.673828 459.712677,1465.296387 431.941040,1454.915405 
	C414.139099,1448.261108 396.426575,1441.141968 379.342560,1432.853149 
	C360.475006,1423.699097 341.938843,1413.673096 324.086365,1402.681885 
	C312.118011,1395.313354 301.486145,1385.734863 290.445526,1376.908447 
	C276.062653,1365.409912 265.171478,1351.041748 256.942474,1334.643433 
	C246.492386,1313.818970 246.808853,1292.506348 254.580017,1271.015503 
	C261.420929,1252.097534 273.079803,1236.409912 288.218933,1223.423950 
	C302.672791,1211.025757 318.977020,1201.368774 337.004944,1195.225830 
	C352.001770,1190.115845 367.253845,1185.546753 382.677368,1181.962280 
	C395.256012,1179.038818 408.205597,1177.410522 421.083282,1176.165649 
	C432.287750,1175.082886 443.621582,1175.066040 454.898499,1175.059204 
	C482.037048,1175.042725 508.212799,1180.887695 533.160645,1190.950928 
	C555.518127,1199.969116 577.156128,1210.795044 598.974548,1221.113281 
	C607.429138,1225.111572 615.507507,1229.905518 623.696899,1234.910889 
	C622.030151,1240.239990 626.282776,1242.008423 628.739014,1243.920776 
	C632.868347,1247.135742 634.034729,1251.067261 634.059814,1255.807129 
z"/>
<path fill="#F89655" opacity="1.000000" stroke="none" 
	d="
M1333.873779,1379.196777 
	C1318.572266,1388.268677 1301.763550,1393.222168 1284.402954,1395.812500 
	C1269.724976,1398.002441 1254.842651,1399.312988 1240.008911,1399.842896 
	C1221.772217,1400.494385 1203.459106,1400.615967 1185.237915,1399.741089 
	C1153.747803,1398.229248 1122.843262,1392.690796 1092.573975,1383.754028 
	C1054.769287,1372.592285 1018.921082,1356.706909 984.170227,1338.328125 
	C963.264648,1327.271973 942.783813,1315.412598 922.124146,1303.892456 
	C921.267639,1303.415039 920.534302,1302.716553 919.346313,1301.628174 
	C911.467957,1293.826538 904.026611,1286.476562 896.498535,1279.216553 
	C872.430969,1256.006348 848.087891,1233.073364 824.413330,1209.469604 
	C818.421631,1203.495728 814.076599,1195.679810 809.789673,1188.240845 
	C805.639771,1181.039429 806.215820,1173.283813 809.603516,1165.666260 
	C814.498596,1154.659546 822.301392,1145.782227 830.430420,1137.217163 
	C846.977539,1119.782593 866.291016,1106.075684 887.859436,1095.484131 
	C893.058777,1092.930908 898.061829,1089.978027 903.498169,1087.305664 
	C936.989807,1095.515991 970.315125,1102.978149 1003.243347,1111.905151 
	C1046.139526,1123.534546 1088.989868,1135.471191 1131.375732,1148.813477 
	C1198.205933,1169.850342 1262.645630,1197.138428 1326.264771,1226.381470 
	C1329.201294,1227.731201 1329.929932,1229.125488 1329.597534,1232.417114 
	C1327.893555,1249.292358 1325.491333,1266.202393 1325.410767,1283.110352 
	C1325.302979,1305.711670 1326.666260,1328.353516 1328.291992,1350.913696 
	C1328.977417,1360.426025 1331.944092,1369.774048 1333.873779,1379.196777 
M1240.159790,1267.045288 
	C1240.159790,1267.045288 1240.196411,1267.238892 1239.413330,1267.080200 
	C1238.601929,1267.223999 1237.743774,1267.243774 1236.986206,1267.529907 
	C1222.774902,1272.897583 1212.268799,1282.769409 1204.107300,1295.235474 
	C1199.572510,1302.161865 1201.829590,1306.722290 1210.026367,1308.223267 
	C1211.968506,1308.578979 1213.960693,1308.662476 1216.582642,1309.191406 
	C1220.288086,1311.924316 1224.524414,1312.242188 1228.448608,1310.481445 
	C1234.178467,1307.910522 1239.570923,1304.594360 1245.145630,1301.669312 
	C1251.599243,1298.282959 1257.816040,1294.170166 1264.633301,1291.811768 
	C1276.830811,1287.591675 1287.015137,1295.157837 1286.980713,1308.006836 
	C1286.963379,1314.462769 1285.814941,1320.911255 1285.272705,1327.371094 
	C1284.563232,1335.823364 1290.035278,1343.589478 1297.570557,1344.963745 
	C1305.779419,1346.460693 1314.842896,1341.641479 1316.339111,1333.821289 
	C1318.234863,1323.913696 1320.245483,1313.740723 1319.936890,1303.752319 
	C1319.014404,1273.894043 1290.966431,1252.460938 1261.674438,1258.788696 
	C1254.636353,1260.309204 1247.993774,1263.660034 1240.709717,1266.393066 
	C1240.527466,1266.676025 1240.345215,1266.958984 1240.159790,1267.045288 
M1000.017822,1170.013550 
	C1000.017822,1170.013550 1000.070557,1170.053223 999.241577,1169.933594 
	C976.126831,1175.077148 959.031921,1188.921753 945.398376,1207.557739 
	C942.586487,1211.401489 943.860901,1215.842407 947.701965,1217.995850 
	C951.861206,1220.327515 956.812683,1221.245972 961.942993,1223.186523 
	C970.428101,1229.328491 973.831177,1229.370361 981.982971,1223.119141 
	C985.545593,1220.386963 988.764648,1217.192383 992.410217,1214.586060 
	C998.741333,1210.059692 1004.848999,1204.887329 1011.826538,1201.668457 
	C1026.084839,1195.090698 1041.764771,1203.193848 1044.953369,1218.511230 
	C1046.430176,1225.606079 1046.494995,1233.025024 1046.858521,1240.313965 
	C1047.309570,1249.358032 1052.794922,1255.708374 1060.940796,1256.099243 
	C1069.777100,1256.523193 1076.868652,1250.806641 1077.823608,1241.944214 
	C1078.517334,1235.505371 1079.076294,1228.971802 1078.782104,1222.522095 
	C1077.926880,1203.769775 1071.109619,1187.704590 1055.124634,1176.909668 
	C1039.133057,1166.110229 1021.398438,1164.719604 1002.315613,1169.014160 
	C1001.542664,1169.368164 1000.769714,1169.722168 1000.017822,1170.013550 
M1165.183716,1349.971436 
	C1174.961060,1348.871094 1183.940430,1345.662964 1191.847290,1339.726196 
	C1197.046143,1335.822754 1198.608887,1331.964600 1197.010254,1327.419800 
	C1195.507568,1323.147583 1191.415039,1320.783691 1185.197021,1321.100586 
	C1167.546265,1322.000122 1150.308594,1319.440063 1133.553223,1314.233887 
	C1119.770508,1309.951294 1106.340088,1304.544434 1092.630737,1300.006958 
	C1090.368286,1299.258057 1086.388062,1299.486206 1085.145874,1300.932495 
	C1083.591309,1302.742310 1083.338379,1306.414307 1083.841309,1309.029053 
	C1084.304932,1311.438843 1086.257812,1313.737915 1087.990356,1315.701050 
	C1108.221069,1338.623535 1132.979736,1351.580811 1165.183716,1349.971436 
z"/>
<path fill="#FAD6AA" opacity="1.000000" stroke="none" 
	d="
M1356.806396,1113.093140 
	C1356.486816,1113.199707 1356.211792,1112.904785 1355.785645,1112.479004 
	C1344.848877,1057.287598 1336.821045,1001.646851 1321.895386,947.453735 
	C1308.172363,897.627625 1292.586426,848.372498 1270.079224,801.695557 
	C1239.017456,737.277222 1205.378296,674.236694 1165.534424,614.730347 
	C1146.489014,586.286255 1124.274902,560.248474 1100.793945,535.437012 
	C1078.484131,511.863007 1055.351440,489.040192 1032.012329,466.474915 
	C1005.656921,440.993286 974.751221,422.052307 941.974487,405.935211 
	C907.088196,388.780792 871.766357,372.715057 833.847534,363.422546 
	C796.660522,354.309357 758.824097,350.061066 720.883606,356.361450 
	C699.996033,359.830017 679.433655,366.236603 659.288147,372.997589 
	C611.172852,389.145569 565.406006,410.728821 521.078674,435.397247 
	C493.593140,450.693115 467.047546,467.467163 441.744904,486.149353 
	C432.249786,493.160034 423.298950,500.903931 413.948883,508.117737 
	C411.543579,509.973419 408.565247,511.086456 405.499146,512.464355 
	C416.057861,500.180725 426.454102,487.461334 437.996277,475.884460 
	C455.844910,457.982086 476.143524,443.005768 497.216278,429.048401 
	C521.697205,412.833710 547.050110,398.141663 573.367004,385.170990 
	C614.565796,364.865570 657.104187,347.970947 701.665161,336.507874 
	C725.924255,330.267365 750.517212,329.130798 775.515381,330.803009 
	C800.802490,332.494629 825.606140,336.427368 849.949768,343.181366 
	C881.807678,352.020172 912.119873,364.901276 941.779053,379.386658 
	C965.439270,390.942200 989.326904,402.240814 1010.453369,418.108246 
	C1027.365845,430.810577 1043.668945,444.391205 1059.580444,458.337494 
	C1071.831909,469.075836 1083.405151,480.652710 1094.670288,492.439545 
	C1132.231079,531.740234 1168.697510,572.027039 1197.584961,618.368225 
	C1213.051514,643.179749 1227.986450,668.367371 1242.064453,693.987976 
	C1257.908081,722.821533 1272.766235,752.207642 1287.600830,781.581726 
	C1306.917969,819.831360 1321.359985,859.953247 1330.453857,901.805542 
	C1336.412231,929.228088 1341.357300,956.904846 1345.695801,984.633667 
	C1348.732910,1004.044800 1350.275024,1023.711060 1351.941528,1043.309570 
	C1353.640747,1063.291626 1354.665894,1083.330811 1356.011597,1103.343384 
	C1356.221436,1106.464233 1356.567871,1109.575928 1356.806396,1113.093140 
z"/>
<path fill="#CB446F" opacity="1.000000" stroke="none" 
	d="
M1343.585693,1411.947876 
	C1350.696655,1417.287476 1357.754150,1422.341431 1364.089478,1428.179077 
	C1370.426147,1434.017822 1376.472168,1440.299561 1381.802612,1447.052856 
	C1384.787964,1450.834961 1386.653076,1455.800781 1387.986206,1460.525757 
	C1390.799561,1470.495850 1388.135498,1477.747559 1379.580322,1483.539917 
	C1367.271362,1491.874146 1353.932495,1497.241333 1338.751953,1498.165771 
	C1294.937378,1500.834106 1251.704468,1496.753540 1208.703247,1488.513306 
	C1168.813110,1480.869141 1130.106079,1469.365112 1092.567993,1453.945190 
	C1064.933960,1442.593506 1038.608154,1428.561157 1013.057068,1413.179321 
	C987.949463,1398.064453 963.208313,1382.331177 938.494934,1366.573730 
	C909.849487,1348.308960 881.621521,1329.383301 852.830383,1311.354492 
	C810.208862,1284.665283 767.176758,1258.632446 724.478577,1232.064331 
	C710.508240,1223.371460 697.033752,1213.881592 683.154419,1204.481812 
	C690.582031,1208.293091 698.266724,1212.239258 705.776917,1216.493530 
	C721.618713,1225.467407 737.378967,1234.585693 753.154419,1243.676392 
	C770.493896,1253.668579 787.889893,1263.565796 805.122742,1273.739014 
	C830.813965,1288.905518 856.261780,1304.487061 882.040405,1319.501831 
	C906.707397,1333.869141 931.338318,1348.358521 956.590881,1361.642822 
	C979.361389,1373.621460 1002.711121,1384.588379 1026.262573,1394.963745 
	C1043.166504,1402.410400 1060.535278,1409.116577 1078.223511,1414.383545 
	C1097.156860,1420.021118 1116.543823,1424.596191 1136.036865,1427.761841 
	C1154.690186,1430.790894 1173.710449,1431.795898 1192.614258,1432.971436 
	C1207.352295,1433.887817 1222.178833,1434.334106 1236.931396,1433.875488 
	C1269.227173,1432.871338 1301.162354,1429.261963 1331.496582,1417.013184 
	C1335.434814,1415.423096 1339.310791,1413.678711 1343.585693,1411.947876 
z"/>
<path fill="#D7476F" opacity="1.000000" stroke="none" 
	d="
M903.155212,1087.208984 
	C898.061829,1089.978027 893.058777,1092.930908 887.859436,1095.484131 
	C866.291016,1106.075684 846.977539,1119.782593 830.430420,1137.217163 
	C822.301392,1145.782227 814.498596,1154.659546 809.603516,1165.666260 
	C806.215820,1173.283813 805.639771,1181.039429 809.789673,1188.240845 
	C814.076599,1195.679810 818.421631,1203.495728 824.413330,1209.469604 
	C848.087891,1233.073364 872.430969,1256.006348 896.498535,1279.216553 
	C904.026611,1286.476562 911.467957,1293.826538 919.047546,1301.457031 
	C911.402649,1297.619141 903.508911,1293.714478 895.943237,1289.253296 
	C870.227844,1274.090210 844.719604,1258.574707 818.961304,1243.485474 
	C787.259338,1224.914795 755.417236,1206.582397 723.574707,1188.252808 
	C704.108765,1177.047729 684.526611,1166.044434 665.005188,1154.935425 
	C664.296326,1154.531982 663.678162,1153.969238 662.893433,1152.817627 
	C668.503296,1144.630005 674.016479,1136.923828 680.016296,1129.617310 
	C693.632446,1113.035889 707.278687,1096.469604 721.333008,1080.261475 
	C728.585754,1071.897217 737.917786,1067.746460 749.495544,1067.788086 
	C801.534241,1067.975342 852.605713,1075.437134 903.155212,1087.208984 
z"/>
<path fill="#FBC14D" opacity="1.000000" stroke="none" 
	d="
M1564.995850,938.943481 
	C1560.819824,937.432434 1558.937988,934.020020 1558.053833,930.046692 
	C1550.865356,897.746521 1533.418335,871.908447 1508.442505,850.727356 
	C1494.230103,838.674438 1478.391724,829.704407 1460.404541,824.627136 
	C1456.486450,823.521240 1452.249634,822.865662 1448.824585,820.864563 
	C1444.580444,818.385010 1441.637817,814.177429 1442.230835,808.884521 
	C1442.923584,802.702332 1446.337769,798.322632 1452.382812,796.126099 
	C1461.313477,792.880798 1470.466431,790.083008 1479.047607,786.073364 
	C1498.203003,777.122803 1513.839966,763.530090 1527.470581,747.499023 
	C1540.069946,732.680969 1549.665039,716.209900 1555.349365,697.552002 
	C1556.352539,694.259094 1556.702881,690.686462 1558.176270,687.640381 
	C1559.679443,684.532959 1562.194824,681.915283 1565.034424,679.012390 
	C1569.856201,678.961243 1569.043457,682.026550 1569.019775,684.353394 
	C1568.867920,699.309204 1572.293457,713.496277 1578.923462,726.772156 
	C1598.746338,766.464722 1631.069458,792.104553 1671.606689,808.338257 
	C1673.174072,808.966003 1674.731934,809.617493 1677.633667,810.806885 
	C1673.822754,812.169067 1671.415283,812.802673 1669.208618,813.856689 
	C1658.262451,819.085083 1647.003906,823.794678 1636.537964,829.863953 
	C1618.289307,840.446472 1603.514893,855.213501 1590.963623,871.996643 
	C1579.287231,887.610229 1570.474854,904.743774 1567.404785,924.347473 
	C1566.641846,929.219055 1565.800903,934.078491 1564.995850,938.943481 
z"/>
<path fill="#FAD6AA" opacity="1.000000" stroke="none" 
	d="
M903.498169,1087.305664 
	C852.605713,1075.437134 801.534241,1067.975342 749.495544,1067.788086 
	C737.917786,1067.746460 728.585754,1071.897217 721.333008,1080.261475 
	C707.278687,1096.469604 693.632446,1113.035889 680.016296,1129.617310 
	C674.016479,1136.923828 668.503296,1144.630005 662.700378,1152.502686 
	C660.341614,1151.833984 658.051636,1150.817017 655.924133,1149.872192 
	C663.501953,1141.884766 671.194275,1134.786499 677.685242,1126.721313 
	C690.608643,1110.663696 702.925659,1094.115356 715.380127,1077.684082 
	C720.157227,1071.381592 723.903381,1064.092773 729.514282,1058.706543 
	C732.717041,1055.631836 738.645081,1054.684448 743.493958,1054.168457 
	C758.629395,1052.557861 773.825439,1050.809570 789.016418,1050.624268 
	C804.739258,1050.432373 820.506531,1051.706665 836.210999,1052.906494 
	C847.887695,1053.798462 859.549438,1055.250488 871.121094,1057.068726 
	C888.655640,1059.824219 906.262085,1062.423096 923.559814,1066.322266 
	C958.465698,1074.190796 993.385315,1082.144165 1027.924927,1091.451660 
	C1063.815796,1101.123291 1099.447266,1111.864136 1134.858154,1123.182129 
	C1174.651001,1135.900513 1213.757324,1150.687256 1251.600342,1168.429810 
	C1279.959473,1181.725586 1307.739624,1196.262451 1335.682129,1210.434692 
	C1340.474731,1212.865479 1344.885376,1216.106079 1349.253784,1219.274292 
	C1350.288452,1220.024658 1350.988037,1222.022949 1350.913208,1223.396606 
	C1350.119141,1237.968140 1349.137817,1252.529419 1348.204346,1267.093384 
	C1348.161865,1267.755249 1348.043945,1268.413696 1348.027344,1269.075439 
	C1347.681641,1282.879150 1347.068481,1296.683105 1347.079834,1310.486694 
	C1347.093262,1326.791260 1346.279785,1343.281128 1348.458984,1359.333130 
	C1349.861572,1369.665649 1344.541504,1373.002563 1338.097778,1377.155640 
	C1336.994629,1377.866455 1335.771606,1378.391357 1334.238770,1379.099365 
	C1331.944092,1369.774048 1328.977417,1360.426025 1328.291992,1350.913696 
	C1326.666260,1328.353516 1325.302979,1305.711670 1325.410767,1283.110352 
	C1325.491333,1266.202393 1327.893555,1249.292358 1329.597534,1232.417114 
	C1329.929932,1229.125488 1329.201294,1227.731201 1326.264771,1226.381470 
	C1262.645630,1197.138428 1198.205933,1169.850342 1131.375732,1148.813477 
	C1088.989868,1135.471191 1046.139526,1123.534546 1003.243347,1111.905151 
	C970.315125,1102.978149 936.989807,1095.515991 903.498169,1087.305664 
z"/>
<path fill="#F29655" opacity="1.000000" stroke="none" 
	d="
M407.378662,645.041626 
	C409.886444,642.464478 412.561035,639.591553 415.646851,637.263794 
	C450.257446,611.155640 486.254913,587.189148 524.721802,567.068237 
	C554.473511,551.506042 585.526123,539.694275 619.209290,536.636963 
	C654.435974,533.439514 689.578186,533.877319 723.383423,546.022644 
	C751.826904,556.241699 776.261414,573.192688 798.676331,593.262756 
	C840.322632,630.552673 863.334167,677.613647 871.704834,732.304138 
	C877.237061,768.449463 871.314148,803.170837 858.696228,837.212036 
	C847.742615,866.763306 834.836792,895.393616 820.430603,923.368652 
	C816.183289,931.616516 811.068481,939.417664 805.872070,947.723633 
	C805.188904,948.025085 804.984863,948.026428 804.780884,948.027832 
	C814.196716,925.515137 824.170349,903.215576 832.875977,880.431519 
	C842.114685,856.252441 849.895142,831.507568 854.574707,805.984436 
	C857.618652,789.382446 858.866089,772.646362 857.314209,755.630920 
	C854.360413,723.242615 844.742676,692.966553 830.065857,664.180908 
	C817.524719,639.583923 800.171448,618.790527 779.421631,600.627625 
	C765.562439,588.496277 750.579346,578.013306 734.455139,569.319763 
	C720.709778,561.908875 705.959717,556.508850 690.287292,555.076721 
	C670.523132,553.270569 650.684570,551.336182 630.869934,551.245361 
	C600.982361,551.108276 572.180115,557.388184 544.362244,568.732971 
	C507.663605,583.699524 473.730621,603.685791 440.148346,624.390747 
	C429.251312,631.109253 418.535278,638.121216 407.378662,645.041626 
z"/>
<path fill="#D7476F" opacity="1.000000" stroke="none" 
	d="
M634.269226,1255.874756 
	C634.034729,1251.067261 632.868347,1247.135742 628.739014,1243.920776 
	C626.282776,1242.008423 622.030151,1240.239990 623.860229,1235.220215 
	C627.469971,1236.893188 630.813660,1238.910278 634.252075,1240.750122 
	C639.568970,1243.595093 645.107605,1246.055542 650.278809,1249.137939 
	C680.591187,1267.205078 711.048523,1285.044678 741.016113,1303.670532 
	C767.224915,1319.959961 793.282837,1336.565186 818.619446,1354.165283 
	C845.482483,1372.825562 871.904480,1392.201050 897.641968,1412.382812 
	C936.337036,1442.724854 974.724792,1473.463623 1016.359924,1499.738159 
	C1040.903198,1515.226562 1065.859497,1530.101807 1091.083374,1544.456177 
	C1109.059082,1554.685913 1127.550049,1564.094849 1146.249878,1572.942993 
	C1165.487793,1582.045654 1185.259277,1590.020630 1204.788330,1598.509521 
	C1205.311035,1598.736816 1205.732300,1599.197144 1205.862183,1600.428345 
	C1190.777100,1595.186157 1175.536133,1590.349609 1160.638916,1584.618896 
	C1127.713257,1571.953613 1095.396484,1557.849121 1064.111816,1541.497803 
	C1028.973022,1523.131958 995.375671,1502.223511 963.406616,1478.791870 
	C944.559265,1464.977783 926.242126,1450.440063 907.690979,1436.222046 
	C885.356201,1419.103760 863.339661,1401.549194 840.603394,1384.982178 
	C819.364319,1369.506226 797.747986,1354.474121 775.606262,1340.328857 
	C743.937683,1320.097290 711.739319,1300.685913 679.564392,1281.260376 
	C665.521912,1272.782104 650.976868,1265.136108 636.185547,1256.786377 
	C635.483826,1256.243042 635.217285,1256.096802 634.911499,1256.021973 
	C634.911499,1256.021973 634.478638,1255.942505 634.269226,1255.874756 
z"/>
<path fill="#FAD6AA" opacity="1.000000" stroke="none" 
	d="
M1565.228394,939.245789 
	C1565.800903,934.078491 1566.641846,929.219055 1567.404785,924.347473 
	C1570.474854,904.743774 1579.287231,887.610229 1590.963623,871.996643 
	C1603.514893,855.213501 1618.289307,840.446472 1636.537964,829.863953 
	C1647.003906,823.794678 1658.262451,819.085083 1669.208618,813.856689 
	C1671.415283,812.802673 1673.822754,812.169067 1677.633667,810.806885 
	C1674.731934,809.617493 1673.174072,808.966003 1671.606689,808.338257 
	C1631.069458,792.104553 1598.746338,766.464722 1578.923462,726.772156 
	C1572.293457,713.496277 1568.867920,699.309204 1569.019775,684.353394 
	C1569.043457,682.026550 1569.856201,678.961243 1565.383545,678.993286 
	C1571.569824,673.864746 1580.765381,679.762817 1583.113159,686.330933 
	C1587.182007,697.714722 1590.470581,709.607422 1596.222534,720.117615 
	C1615.356567,755.079712 1642.785400,780.951294 1681.487915,793.397217 
	C1685.080322,794.552490 1688.859497,795.155945 1692.402222,796.431458 
	C1699.002930,798.808044 1702.296631,803.845642 1702.003662,810.470398 
	C1701.742554,816.370728 1697.532837,821.494324 1691.005859,822.920288 
	C1671.843384,827.106873 1654.765503,835.588928 1639.458740,847.675171 
	C1614.339478,867.509216 1596.055420,892.185120 1586.700073,923.082336 
	C1585.845825,925.903687 1584.934326,928.710815 1583.944092,931.487061 
	C1581.162598,939.285828 1573.236206,942.721619 1565.228394,939.245789 
z"/>
<path fill="#FBC14D" opacity="1.000000" stroke="none" 
	d="
M1540.109009,1151.523560 
	C1542.218628,1141.731567 1547.773071,1135.568726 1556.943848,1132.682007 
	C1567.243408,1129.440063 1579.172241,1134.113403 1584.758667,1143.610229 
	C1590.302979,1153.035400 1588.604736,1165.949707 1580.856934,1173.280884 
	C1572.765869,1180.936890 1561.266357,1181.914307 1551.652344,1176.276489 
	C1542.150879,1170.704712 1539.301270,1162.268555 1540.109009,1151.523560 
z"/>
<path fill="#FBC14D" opacity="1.000000" stroke="none" 
	d="
M544.931152,880.227661 
	C554.184814,896.301147 544.629272,915.840820 525.356018,916.435120 
	C514.093323,916.782349 503.393341,910.767578 501.381622,894.493042 
	C500.001007,883.323975 506.799591,873.554138 518.840027,870.153809 
	C529.580627,867.120667 538.191589,871.166199 544.931152,880.227661 
z"/>
<path fill="#FBC14D" opacity="1.000000" stroke="none" 
	d="
M1339.313232,469.582397 
	C1352.532715,471.425262 1357.708496,477.100647 1358.120972,488.314789 
	C1358.417480,496.378540 1352.251587,504.424652 1344.497437,505.916260 
	C1334.887939,507.764801 1326.234619,502.825287 1323.093872,494.074036 
	C1319.072388,482.869110 1327.746094,469.806549 1339.313232,469.582397 
z"/>
<path fill="#FBC14D" opacity="1.000000" stroke="none" 
	d="
M575.833252,735.965271 
	C584.056763,727.782654 594.109680,726.881470 601.742859,733.256409 
	C609.057678,739.365479 610.071167,751.719360 604.171387,758.623535 
	C598.932312,764.754517 590.002930,767.401550 582.079346,763.845886 
	C575.009949,760.673584 570.408203,751.019958 572.572388,743.489868 
	C573.290283,740.991882 574.568298,738.654907 575.833252,735.965271 
z"/>
<path fill="#B83F72" opacity="1.000000" stroke="none" 
	d="
M1555.655640,1646.884521 
	C1532.818848,1647.607056 1510.444946,1648.664062 1488.065063,1648.807983 
	C1475.720581,1648.887451 1463.366333,1647.434448 1451.015137,1646.510986 
	C1511.676758,1645.136963 1572.144775,1641.754761 1632.125366,1630.837524 
	C1629.283936,1631.875732 1626.518066,1633.264771 1623.588745,1633.893921 
	C1607.442139,1637.361572 1591.274414,1640.737061 1575.073853,1643.941650 
	C1568.808716,1645.181030 1562.438354,1645.888184 1555.655640,1646.884521 
z"/>
<path fill="#AF8175" opacity="1.000000" stroke="none" 
	d="
M804.483276,948.192749 
	C804.984863,948.026428 805.188904,948.025085 805.698853,948.011902 
	C803.519775,952.608521 801.034851,957.216919 798.221191,961.927002 
	C799.990173,957.471680 802.087891,952.914673 804.483276,948.192749 
z"/>
<path fill="#F29655" opacity="1.000000" stroke="none" 
	d="
M404.283264,647.105591 
	C404.453705,646.782166 404.930237,646.373230 405.740906,645.989502 
	C405.579803,646.349915 405.084564,646.684998 404.283264,647.105591 
z"/>
<path fill="#B83F72" opacity="1.000000" stroke="none" 
	d="
M635.005432,1256.267944 
	C635.217285,1256.096802 635.483826,1256.243042 635.867310,1256.630127 
	C635.715515,1256.704468 635.407410,1256.609131 635.005432,1256.267944 
z"/>
<path fill="#F29655" opacity="1.000000" stroke="none" 
	d="
M406.273895,646.006226 
	C406.159973,645.725220 406.314911,645.376221 406.777771,645.020386 
	C406.904694,645.321777 406.723694,645.630066 406.273895,646.006226 
z"/>
<path fill="#F29655" opacity="1.000000" stroke="none" 
	d="
M930.786255,516.066772 
	C920.958435,515.916443 915.283447,511.434998 914.131409,503.272583 
	C913.040161,495.541504 917.631897,488.084167 924.658691,486.175323 
	C933.922729,483.658722 942.848206,488.724579 944.731079,497.567993 
	C946.630981,506.491516 940.799500,514.467102 930.786255,516.066772 
z"/>
<path fill="#F29655" opacity="1.000000" stroke="none" 
	d="
M1269.314209,958.064270 
	C1263.337402,966.867432 1254.069458,968.759094 1246.393677,963.054382 
	C1239.627319,958.025635 1238.422485,948.046143 1243.767090,941.300354 
	C1248.159058,935.756897 1256.729126,933.919739 1262.660522,937.250061 
	C1270.394287,941.592407 1272.771362,948.725525 1269.314209,958.064270 
z"/>
<path fill="#F29655" opacity="1.000000" stroke="none" 
	d="
M1079.407471,703.484497 
	C1071.002686,709.123108 1062.039917,707.920410 1056.578491,700.710449 
	C1052.267456,695.019165 1053.173950,685.526978 1058.497681,680.612549 
	C1064.090820,675.449463 1073.300659,675.310974 1079.037231,680.303650 
	C1085.384277,685.827515 1086.416870,694.180542 1081.566772,700.911987 
	C1080.984863,701.719543 1080.310059,702.460083 1079.407471,703.484497 
z"/>
<path fill="#F29655" opacity="1.000000" stroke="none" 
	d="
M921.181641,950.325439 
	C920.121948,940.305359 924.123657,934.001709 932.339905,932.191589 
	C940.269531,930.444580 947.781677,934.642883 950.079468,942.105774 
	C952.680603,950.553833 948.684082,958.450378 940.418823,961.194580 
	C932.572083,963.799683 924.559387,959.421631 921.181641,950.325439 
z"/>
<path fill="#272036" opacity="1.000000" stroke="none" 
	d="
M1002.962769,1169.087036 
	C1021.398438,1164.719604 1039.133057,1166.110229 1055.124634,1176.909668 
	C1071.109619,1187.704590 1077.926880,1203.769775 1078.782104,1222.522095 
	C1079.076294,1228.971802 1078.517334,1235.505371 1077.823608,1241.944214 
	C1076.868652,1250.806641 1069.777100,1256.523193 1060.940796,1256.099243 
	C1052.794922,1255.708374 1047.309570,1249.358032 1046.858521,1240.313965 
	C1046.494995,1233.025024 1046.430176,1225.606079 1044.953369,1218.511230 
	C1041.764771,1203.193848 1026.084839,1195.090698 1011.826538,1201.668457 
	C1004.848999,1204.887329 998.741333,1210.059692 992.410217,1214.586060 
	C988.764648,1217.192383 985.545593,1220.386963 981.982971,1223.119141 
	C973.831177,1229.370361 970.428101,1229.328491 961.602417,1222.593994 
	C961.489563,1218.308594 960.858765,1214.279663 962.142029,1210.999756 
	C964.177734,1205.796265 967.126648,1200.838135 970.339294,1196.229370 
	C978.082825,1185.120972 988.577698,1176.984131 1000.070557,1170.053223 
	C1000.070557,1170.053223 1000.017822,1170.013550 1000.335571,1170.083984 
	C1001.423096,1169.798706 1002.192932,1169.442871 1002.962769,1169.087036 
z"/>
<path fill="#272036" opacity="1.000000" stroke="none" 
	d="
M1241.169434,1266.168945 
	C1247.993774,1263.660034 1254.636353,1260.309204 1261.674438,1258.788696 
	C1290.966431,1252.460938 1319.014404,1273.894043 1319.936890,1303.752319 
	C1320.245483,1313.740723 1318.234863,1323.913696 1316.339111,1333.821289 
	C1314.842896,1341.641479 1305.779419,1346.460693 1297.570557,1344.963745 
	C1290.035278,1343.589478 1284.563232,1335.823364 1285.272705,1327.371094 
	C1285.814941,1320.911255 1286.963379,1314.462769 1286.980713,1308.006836 
	C1287.015137,1295.157837 1276.830811,1287.591675 1264.633301,1291.811768 
	C1257.816040,1294.170166 1251.599243,1298.282959 1245.145630,1301.669312 
	C1239.570923,1304.594360 1234.178467,1307.910522 1228.448608,1310.481445 
	C1224.524414,1312.242188 1220.288086,1311.924316 1216.123413,1308.698730 
	C1213.381592,1304.618530 1213.489990,1300.868286 1215.400879,1297.282959 
	C1217.738647,1292.896851 1219.841919,1288.200439 1223.044189,1284.502075 
	C1228.341553,1278.383911 1234.437134,1272.957031 1240.196411,1267.238892 
	C1240.196411,1267.238892 1240.159790,1267.045288 1240.422607,1267.075928 
	C1240.846802,1266.794067 1241.008057,1266.481567 1241.169434,1266.168945 
z"/>
<path fill="#272036" opacity="1.000000" stroke="none" 
	d="
M1164.716064,1349.997559 
	C1132.979736,1351.580811 1108.221069,1338.623535 1087.990356,1315.701050 
	C1086.257812,1313.737915 1084.304932,1311.438843 1083.841309,1309.029053 
	C1083.338379,1306.414307 1083.591309,1302.742310 1085.145874,1300.932495 
	C1086.388062,1299.486206 1090.368286,1299.258057 1092.630737,1300.006958 
	C1106.340088,1304.544434 1119.770508,1309.951294 1133.553223,1314.233887 
	C1150.308594,1319.440063 1167.546265,1322.000122 1185.197021,1321.100586 
	C1191.415039,1320.783691 1195.507568,1323.147583 1197.010254,1327.419800 
	C1198.608887,1331.964600 1197.046143,1335.822754 1191.847290,1339.726196 
	C1183.940430,1345.662964 1174.961060,1348.871094 1164.716064,1349.997559 
z"/>
<path fill="#B83F72" opacity="1.000000" stroke="none" 
	d="
M999.656067,1169.993408 
	C988.577698,1176.984131 978.082825,1185.120972 970.339294,1196.229370 
	C967.126648,1200.838135 964.177734,1205.796265 962.142029,1210.999756 
	C960.858765,1214.279663 961.489563,1218.308594 961.340210,1222.391113 
	C956.812683,1221.245972 951.861206,1220.327515 947.701965,1217.995850 
	C943.860901,1215.842407 942.586487,1211.401489 945.398376,1207.557739 
	C959.031921,1188.921753 976.126831,1175.077148 999.656067,1169.993408 
z"/>
<path fill="#B83F72" opacity="1.000000" stroke="none" 
	d="
M1239.804932,1267.159546 
	C1234.437134,1272.957031 1228.341553,1278.383911 1223.044189,1284.502075 
	C1219.841919,1288.200439 1217.738647,1292.896851 1215.400879,1297.282959 
	C1213.489990,1300.868286 1213.381592,1304.618530 1215.796997,1308.538574 
	C1213.960693,1308.662476 1211.968506,1308.578979 1210.026367,1308.223267 
	C1201.829590,1306.722290 1199.572510,1302.161865 1204.107300,1295.235474 
	C1212.268799,1282.769409 1222.774902,1272.897583 1236.986206,1267.529907 
	C1237.743774,1267.243774 1238.601929,1267.223999 1239.804932,1267.159546 
z"/>
<path fill="#B83F72" opacity="1.000000" stroke="none" 
	d="
M1002.639160,1169.050537 
	C1002.192932,1169.442871 1001.423096,1169.798706 1000.325012,1170.115234 
	C1000.769714,1169.722168 1001.542664,1169.368164 1002.639160,1169.050537 
z"/>
<path fill="#B83F72" opacity="1.000000" stroke="none" 
	d="
M1240.939575,1266.281006 
	C1241.008057,1266.481567 1240.846802,1266.794067 1240.424316,1267.174316 
	C1240.345215,1266.958984 1240.527466,1266.676025 1240.939575,1266.281006 
z"/>
</svg>